<svg version="1.1" id="图层_1" xmlns="http://www.w3.org/2000/svg" xmlns:xlink="http://www.w3.org/1999/xlink" x="0px" y="0px" viewBox="0.8933100700378418 0.9606848955154419 98.7262954711914 96.76976776123047" enable-background="new 0 0 100 99" xml:space="preserve">
<g>
	<g>
		<path fill="#4ABA00" d="M55.85,94.84c6.43-2.55,12.29-6.77,16.88-12.57c1.87-2.36,1.47-5.79-0.89-7.66
			c-2.36-1.87-5.79-1.47-7.66,0.89c-10.23,12.93-29.06,15.12-41.99,4.9c-5.33-4.22-8.97-9.93-10.54-16.53
			c-0.69-2.93-3.63-4.74-6.56-4.05c-2.93,0.69-4.74,3.63-4.05,6.56c2.13,9.01,7.11,16.81,14.38,22.57
			C27.26,98.31,42.74,100.04,55.85,94.84z"></path>
		
			<ellipse transform="matrix(0.6204 -0.7843 0.7843 0.6204 -41.0606 55.7482)" fill="#4ABA00" cx="37.06" cy="70.29" rx="10.72" ry="10.72"></ellipse>
	</g>
	<g>
		<path fill="#FFD100" d="M85.1,88.28c0.62-0.25,1.21-0.61,1.73-1.1c6.73-6.35,11-14.56,12.35-23.74
			c1.58-10.78-1.13-21.54-7.63-30.28c-6.51-8.74-16.03-14.43-26.81-16.01c-2.98-0.44-5.75,1.62-6.19,4.6
			c-0.44,2.98,1.62,5.75,4.6,6.19c7.9,1.16,14.88,5.33,19.64,11.73c4.77,6.41,6.75,14.28,5.6,22.18
			c-0.99,6.72-4.11,12.74-9.04,17.39c-2.19,2.07-2.29,5.52-0.22,7.71C80.69,88.63,83.08,89.08,85.1,88.28z"></path>
		
			<ellipse transform="matrix(0.1452 -0.9894 0.9894 0.1452 8.259 117.6182)" fill="#FFD100" cx="72.2" cy="54.03" rx="10.72" ry="10.72"></ellipse>
	</g>
	<g>
		<path fill="#FF7500" d="M17.67,59.89c2.8-1.11,4.17-4.28,3.06-7.08c-6.08-15.32,1.43-32.73,16.75-38.81
			c6.32-2.51,13.09-2.81,19.58-0.86c2.89,0.86,5.92-0.78,6.79-3.66c0.86-2.89-0.78-5.92-3.66-6.79c-8.87-2.65-18.11-2.25-26.73,1.17
			c-20.91,8.3-31.17,32.07-22.87,52.98C11.7,59.63,14.87,61,17.67,59.89z"></path>
		
			<ellipse transform="matrix(0.9294 -0.369 0.369 0.9294 -9.0426 16.5643)" fill="#FF7500" cx="38.79" cy="31.93" rx="10.72" ry="10.72"></ellipse>
	</g>
</g>
</svg>